# xmcd
#
# Track frame offsets:
# 150
# 19640
# 39187
# 61483
# 82582
# 105685
# 125342
# 148225
# 170914
# 190667
# 215012
# 240730
#
# Disc length: 3513 seconds
#
# Revision: 0
# Processed by: cddbd v1.5PL3 Copyright (c) Steve Scherf et al.
# Submitted via: plextools 2.08
#
DISCID=a10db70c
DTITLE=愛内里菜 - Single Collection
DYEAR=2003
DGENRE=
TTITLE0=愛内里菜 - FULL JUMP
TTITLE1=愛内里菜 - I can't stop my love for you
TTITLE2=愛内里菜 - 恋はスリル、ショック、サスペンス
TTITLE3=愛内里菜 - Sincerely Yours
TTITLE4=愛内里菜 - Forever You 〜永遠に君と〜
TTITLE5=愛内里菜 - NAVY BLUE
TTITLE6=愛内里菜 - 風のない海で抱きしめて
TTITLE7=愛内里菜 - Close To Your Heart
TTITLE8=愛内里菜 - It's crazy for you
TTITLE9=愛内里菜 - Run up
TTITLE10=愛内里菜 - Deep Freeze
TTITLE11=愛内里菜 - 空気
EXTD=
EXTT0=
EXTT1=
EXTT2=
EXTT3=
EXTT4=
EXTT5=
EXTT6=
EXTT7=
EXTT8=
EXTT9=
EXTT10=
EXTT11=
PLAYORDER=
